# Blender 4.2.2 LTS
# www.blender.org
mtllib Cube.mtl
o Cube
v 1.000000 1.000000 -1.000000
v 1.000000 -1.000000 -1.000000
v 1.000000 1.000000 1.000000
v 1.000000 -1.000000 1.000000
v -1.000000 1.000000 -1.000000
v -1.000000 -1.000000 -1.000000
v -1.000000 1.000000 1.000000
v -1.000000 -1.000000 1.000000
vn -0.0000 -0.0000 1.0000
vn -0.0000 -0.0000 -1.0000
vt 0.009434 0.657233
vt 0.323899 0.342767
vt 0.323899 0.657233
vt 0.342767 0.990566
vt 0.657233 0.676101
vt 0.657233 0.990566
vt 0.009434 0.342767
vt 0.342767 0.676101
s 0
usemtl Material.001
f 3/1/1 8/2/1 4/3/1
f 5/4/2 2/5/2 6/6/2
f 3/1/1 7/7/1 8/2/1
f 5/4/2 1/8/2 2/5/2
o Cube.001
v 1.000000 1.000000 -1.000000
v 1.000000 -1.000000 -1.000000
v 1.000000 1.000000 1.000000
v 1.000000 -1.000000 1.000000
v -1.000000 1.000000 -1.000000
v -1.000000 -1.000000 -1.000000
v -1.000000 1.000000 1.000000
v -1.000000 -1.000000 1.000000
vn -0.0000 1.0000 -0.0000
vn -1.0000 -0.0000 -0.0000
vn -0.0000 -1.0000 -0.0000
vn 1.0000 -0.0000 -0.0000
vt 0.323899 0.323899
vt 0.009434 0.009434
vt 0.323899 0.009434
vt 0.342767 0.323899
vt 0.657233 0.009434
vt 0.657233 0.323899
vt 0.657233 0.657233
vt 0.342767 0.342767
vt 0.657233 0.342767
vt 0.009434 0.990566
vt 0.323899 0.676101
vt 0.323899 0.990566
vt 0.009434 0.323899
vt 0.342767 0.009434
vt 0.342767 0.657233
vt 0.009434 0.676101
s 0
usemtl Material
f 13/9/3 11/10/3 9/11/3
f 15/12/4 14/13/4 16/14/4
f 10/15/5 16/16/5 14/17/5
f 9/18/6 12/19/6 10/20/6
f 13/9/3 15/21/3 11/10/3
f 15/12/4 13/22/4 14/13/4
f 10/15/5 12/23/5 16/16/5
f 9/18/6 11/24/6 12/19/6
