# Blender 3.1.0
# www.blender.org
mtllib Cube2.mtl
o Cube
v 8.000000 0.400000 -8.000000
v 8.000000 -0.400000 -8.000000
v 8.000000 0.400000 8.000000
v 8.000000 -0.400000 8.000000
v -8.000000 0.400000 -8.000000
v -8.000000 -0.400000 -8.000000
v -8.000000 0.400000 8.000000
v -8.000000 -0.400000 8.000000
vn -0.0000 0.4000 -0.0000
vn -0.0000 -0.0000 8.0000
vn -8.0000 -0.0000 -0.0000
vn -0.0000 -0.4000 -0.0000
vn 8.0000 -0.0000 -0.0000
vn -0.0000 -0.0000 -8.0000
vt -0.001028 -0.011924
vt 1.002919 -0.002919
vt 1.000000 1.000000
vt -0.002919 -0.002919
vt 1.004112 -0.005757
vt 0.000000 1.000000
vt -0.001028 0.996711
vt 1.000000 0.000000
vt 1.002919 1.002919
vt 0.000000 0.000000
vt 0.997944 1.002878
vt -0.002919 1.002919
vt 1.001439 -0.015008
vt 1.000000 1.000000
vt 1.000000 0.000000
vt -0.010691 -0.005757
vt 0.000000 0.000000
vt 0.000000 1.000000
vt 1.004523 1.005962
vt 1.000000 1.000000
vt 1.000000 0.000000
vt 0.000000 0.000000
vt 0.000000 1.000000
vt -0.004523 0.996711
s 0
usemtl Material
f 5/13/1 3/7/1 1/1/1
f 3/8/2 8/23/2 4/10/2
f 7/21/3 6/18/3 8/22/3
f 2/5/4 8/24/4 6/16/4
f 1/2/5 4/12/5 2/4/5
f 5/15/6 2/6/6 6/17/6
f 5/13/1 7/19/1 3/7/1
f 3/8/2 7/20/2 8/23/2
f 7/21/3 5/14/3 6/18/3
f 2/5/4 4/11/4 8/24/4
f 1/2/5 3/9/5 4/12/5
f 5/15/6 1/3/6 2/6/6
